<?xml version="1.0" encoding="UTF-8" standalone="no"?>
<svg
   xmlns:dc="http://purl.org/dc/elements/1.1/"
   xmlns:cc="http://creativecommons.org/ns#"
   xmlns:rdf="http://www.w3.org/1999/02/22-rdf-syntax-ns#"
   xmlns:svg="http://www.w3.org/2000/svg"
   xmlns="http://www.w3.org/2000/svg"
   xmlns:xlink="http://www.w3.org/1999/xlink"
   xmlns:sodipodi="http://sodipodi.sourceforge.net/DTD/sodipodi-0.dtd"
   xmlns:inkscape="http://www.inkscape.org/namespaces/inkscape"
   width="100%"
   height="100%"
   viewBox="0 0 86 86"
   version="1.1"
   xml:space="preserve"
   style="fill-rule:evenodd;clip-rule:evenodd;stroke-linejoin:round;stroke-miterlimit:1.41421;"
   id="svg21"
   sodipodi:docname="harbour-sqlbrowser.svg"
   inkscape:version="1.0.2 (e86c870879, 2021-01-15)"
   inkscape:export-filename="/home/jni/code/sailfish/harbour-sqlbrowser/harbour-sqlbrowser/icons/172x172/harbour-sqlbrowser.png"
   inkscape:export-xdpi="192"
   inkscape:export-ydpi="192"><metadata
   id="metadata25"><rdf:RDF><cc:Work
       rdf:about=""><dc:format>image/svg+xml</dc:format><dc:type
         rdf:resource="http://purl.org/dc/dcmitype/StillImage" /><dc:title /></cc:Work></rdf:RDF></metadata><sodipodi:namedview
   pagecolor="#ffffff"
   bordercolor="#666666"
   borderopacity="1"
   objecttolerance="10"
   gridtolerance="10"
   guidetolerance="10"
   inkscape:pageopacity="0"
   inkscape:pageshadow="2"
   inkscape:window-width="1860"
   inkscape:window-height="1046"
   id="namedview23"
   showgrid="true"
   inkscape:zoom="2.744186"
   inkscape:cx="21.54523"
   inkscape:cy="61.709152"
   inkscape:window-x="60"
   inkscape:window-y="0"
   inkscape:window-maximized="1"
   inkscape:current-layer="svg21"
   inkscape:document-rotation="0"><inkscape:grid
     type="xygrid"
     id="grid832" /></sodipodi:namedview>
    <path
   d="M 0.1,1.53 V 43 c 0,23.693 19.208,42.9 42.9,42.9 h 41.47 c 0.79,0 1.43,-0.64 1.43,-1.43 V 43 C 85.9,19.306 66.692,0.1 43,0.1 H 1.53 C 0.74,0.1 0.1,0.74 0.1,1.53 Z"
   style="fill:url(#_Linear1);fill-rule:nonzero;stroke-width:1.00157;stroke-miterlimit:4;stroke-dasharray:none"
   id="path2"
   inkscape:connector-curvature="0" />
    <g
   transform="matrix(0.755245,0,0,0.755245,11.0245,11.0245)"
   id="g6"
   style="fill:#bbbcba;fill-opacity:0.748768">
        <path
   d="M 0.1,1.53 V 43 c 0,23.693 19.208,42.9 42.9,42.9 h 41.47 c 0.79,0 1.43,-0.64 1.43,-1.43 V 43 C 85.9,19.306 66.692,0.1 43,0.1 H 1.53 C 0.74,0.1 0.1,0.74 0.1,1.53 Z"
   style="fill:#bbbcba;fill-opacity:0.748768;fill-rule:nonzero"
   id="path4"
   inkscape:connector-curvature="0" />
    </g>
    
    <defs
   id="defs19">
        <linearGradient
   id="_Linear1"
   x1="0"
   y1="0"
   x2="1"
   y2="0"
   gradientUnits="userSpaceOnUse"
   gradientTransform="matrix(-84.9623,-84.9623,84.9623,-84.9623,85.4811,85.4812)"><stop
     offset="0"
     style="stop-color:#0000f9;stop-opacity:1"
     id="stop12" /><stop
     offset="0.5009594"
     style="stop-color:#0086ff;stop-opacity:1"
     id="stop14" /><stop
     offset="1"
     style="stop-color:#000074;stop-opacity:0.53361344"
     id="stop16" /></linearGradient>
    <filter
   id="filter6093"
   height="1.3855"
   width="1.1285"
   color-interpolation-filters="sRGB"
   y="-0.19277"
   x="-0.064257003"
   inkscape:collect="always"><feGaussianBlur
     id="feGaussianBlur6095"
     stdDeviation="0.89250425"
     inkscape:collect="always" /></filter><linearGradient
   id="linearGradient6110"
   y2="511.97"
   spreadMethod="reflect"
   gradientUnits="userSpaceOnUse"
   x2="286.63"
   gradientTransform="matrix(1.1818,0,0,1.1818,-30.649,-69.394)"
   y1="511.97"
   x1="269.97"
   inkscape:collect="always"><stop
     id="stop5497"
     style="stop-color:#c6c6c6"
     offset="0" /><stop
     id="stop5501"
     style="stop-color:#e3e3e3"
     offset=".20485" /><stop
     id="stop5499"
     style="stop-color:#a5a5a8"
     offset="1" /></linearGradient><linearGradient
   id="linearGradient6112"
   y2="527.34003"
   gradientUnits="userSpaceOnUse"
   x2="286.63"
   y1="518.56"
   x1="282.35999"
   inkscape:collect="always"><stop
     id="stop5468"
     style="stop-color:#e3e3e3"
     offset="0" /><stop
     id="stop5470"
     style="stop-color:#a5a5a8"
     offset="1" /></linearGradient><linearGradient
   id="linearGradient6114"
   y2="520.33002"
   xlink:href="#linearGradient6035"
   spreadMethod="reflect"
   gradientUnits="userSpaceOnUse"
   x2="327.78"
   gradientTransform="translate(0,0.25)"
   y1="522.60999"
   x1="308.5"
   inkscape:collect="always" /><linearGradient
   id="linearGradient6035"><stop
     id="stop6037"
     style="stop-color:#ffffff"
     offset="0" /><stop
     id="stop6039"
     style="stop-color:#ffffff;stop-opacity:0"
     offset="1" /></linearGradient><linearGradient
   id="linearGradient6116"
   y2="520.33002"
   xlink:href="#linearGradient6035"
   spreadMethod="reflect"
   gradientUnits="userSpaceOnUse"
   x2="327.78"
   gradientTransform="translate(0,12)"
   y1="522.60999"
   x1="308.5"
   inkscape:collect="always" /><linearGradient
   id="linearGradient6118"
   y2="520.33002"
   xlink:href="#linearGradient6035"
   spreadMethod="reflect"
   gradientUnits="userSpaceOnUse"
   x2="327.78"
   gradientTransform="translate(0,22)"
   y1="522.60999"
   x1="308.5"
   inkscape:collect="always" /><linearGradient
   id="linearGradient30262"
   y2="427.64999"
   gradientUnits="userSpaceOnUse"
   x2="133.14"
   y1="429.98001"
   x1="100.21"
   inkscape:collect="always"
   gradientTransform="matrix(0.45990505,0,0,0.45990505,-100.08753,-89.9589)"><stop
     id="stop26678"
     style="stop-color:#ffffff"
     offset="0" /><stop
     id="stop26680"
     style="stop-color:#64bec8;stop-opacity:.19608"
     offset="1" /></linearGradient><linearGradient
   id="linearGradient30264"
   y2="596.37"
   gradientUnits="userSpaceOnUse"
   x2="178.8"
   gradientTransform="matrix(-0.11375073,0.11375073,0.11375073,0.11375073,72.928353,-25.082503)"
   y1="596.37"
   x1="128.78999"
   inkscape:collect="always"><stop
     id="stop26684"
     style="stop-color:#c7c7c7"
     offset="0" /><stop
     id="stop26686"
     style="stop-color:#c7c7c7;stop-opacity:0"
     offset="1" /></linearGradient></defs>

<g
   id="g6097"
   transform="matrix(-0.90014396,0,0,0.90014396,317.47286,-440.31621)"><ellipse
     id="path6079"
     style="fill:#2e3436;filter:url(#filter6093)"
     transform="matrix(1.1818,0,0,1.1818,-30.649,-65.984)"
     cx="286.6308"
     cy="521.77954"
     rx="16.667517"
     ry="5.5558391" /><path
     id="path5488"
     sodipodi:nodetypes="cccssscccc"
     style="fill:url(#linearGradient6110)"
     d="m 288.41,517.5 v 30.092 h 0.125 c -0.0806,0.24126 -0.125,0.47032 -0.125,0.71875 0,3.6263 8.8086,6.5625 19.688,6.5625 10.8794,0 19.688,-2.9362 19.688,-6.5625 0,-0.24879 -0.0442,-0.47715 -0.125,-0.71875 h 0.125 V 517.5 h -39.375 z" /><ellipse
     id="path5460"
     style="fill:url(#linearGradient6112)"
     transform="matrix(1.1818,0,0,1.1818,-30.649,-99.394)"
     cx="286.6308"
     cy="521.77954"
     rx="16.667517"
     ry="5.5558391" /><path
     id="path6026"
     style="fill:#565656"
     d="m 288.38,539.09 c 0.14735,3.584 8.9318,6.4688 19.719,6.4688 10.756,0 19.492,-2.8677 19.688,-6.4375 -3.4515,2.9359 -10.959,4.9688 -19.688,4.9688 -8.7461,0 -16.277,-2.0544 -19.719,-5 z" /><path
     id="path6030"
     style="fill:url(#linearGradient6114)"
     d="m 288.38,517.34 c 0.14735,3.584 8.9318,6.4688 19.719,6.4688 10.756,0 19.492,-2.8677 19.688,-6.4375 -0.21572,0.18349 -0.44078,0.35509 -0.6875,0.53125 -0.009,0.0117 -0.0216,0.0196 -0.0312,0.0312 -2.2921,2.7774 -9.9035,4.8125 -18.969,4.8125 -9.122,0 -16.786,-2.0707 -19.031,-4.875 -0.0249,-0.0179 -0.038,-0.0446 -0.0625,-0.0625 -0.21872,-0.15969 -0.43159,-0.30323 -0.625,-0.46875 z" /><g
     id="g6071"><g
       id="g6067"
       transform="translate(0,-0.52315)"><path
         id="path6022"
         style="fill:#565656"
         d="m 288.38,529.09 c 0.14735,3.584 8.9318,6.4688 19.719,6.4688 10.756,0 19.492,-2.8677 19.688,-6.4375 -3.4515,2.9359 -10.959,4.9688 -19.688,4.9688 -8.7461,0 -16.277,-2.0544 -19.719,-5 z" /><path
         id="path6043"
         style="fill:url(#linearGradient6116)"
         d="m 288.38,529.09 c 0.14735,3.584 8.9318,6.4688 19.719,6.4688 10.756,0 19.492,-2.8677 19.688,-6.4375 -0.0497,0.0422 -0.10543,0.0838 -0.15625,0.125 -1.2422,3.2268 -9.5106,5.7188 -19.531,5.7188 -10.113,0 -18.468,-2.5112 -19.594,-5.7812 -0.0401,-0.0317 -0.0863,-0.0607 -0.125,-0.0937 z" /></g><path
       id="path6054"
       style="fill:url(#linearGradient6118)"
       d="m 288.38,539.09 c 0.14735,3.584 8.9318,6.4688 19.719,6.4688 10.756,0 19.492,-2.8677 19.688,-6.4375 -0.0497,0.0422 -0.10543,0.0838 -0.15625,0.125 -1.2422,3.2268 -9.5106,5.7188 -19.531,5.7188 -10.113,0 -18.468,-2.5112 -19.594,-5.7812 -0.0401,-0.0317 -0.0863,-0.0607 -0.125,-0.0937 z" /></g><path
     id="path6060"
     style="fill:#565656"
     d="m 288.5,549.94 c 1.126,3.27 9.481,5.7812 19.594,5.7812 10.021,0 18.289,-2.492 19.531,-5.7188 -3.5163,2.8678 -10.929,4.8438 -19.531,4.8438 -8.6478,0 -16.1,-2.0137 -19.594,-4.9062 z" /></g><g
   id="g1194"
   transform="translate(-58.105684,-1.8943207)"><circle
     id="path30252"
     style="fill:url(#linearGradient30262);stroke:#585858;stroke-width:4.19364;stroke-miterlimit:4;stroke-dasharray:none;stroke-opacity:1"
     transform="matrix(-0.70710678,0.70710678,0.70710678,0.70710678,0,0)"
     cx="-41.086605"
     cy="106.9209"
     r="8.826911" /><circle
     id="path30254"
     style="fill:#ffffff;stroke-width:0.19798"
     transform="matrix(-0.70710678,0.70710678,0.70710678,0.70710678,0,0)"
     cx="-38.716339"
     cy="105.46588"
     r="2.5998704" /><rect
     id="rect30256"
     style="fill:#737373;fill-opacity:1;stroke-width:0.161;stroke-miterlimit:4;stroke-dasharray:none"
     rx="1.5437522"
     ry="1.1951677"
     height="3.9000797"
     width="9.7500381"
     y="116.67262"
     x="-45.961941"
     transform="matrix(-0.70710678,0.70710678,0.70710678,0.70710678,0,0)" /><rect
     id="rect30258"
     style="fill:#565656;stroke-width:0.160868"
     rx="1.5437522"
     ry="1.1951677"
     height="18.525539"
     width="6.6625023"
     y="120.5061"
     x="-44.41761"
     transform="matrix(-0.70710678,0.70710678,0.70710678,0.70710678,0,0)" /><path
     id="path30260"
     style="fill:url(#linearGradient30264);stroke-width:0.160868"
     d="m 115.96802,54.48974 c 0.43794,-0.280965 1.04651,-0.209302 1.45601,0.200201 l 11.40692,11.406923 c 0.40951,0.409503 0.48117,1.018069 0.2002,1.45601 -2.21586,-0.81218 -5.03005,-2.725468 -7.68613,-5.381547 -2.65608,-2.65608 -4.56482,-5.465723 -5.377,-7.681587 z" /></g></svg>
